<mxfile host="app.diagrams.net" modified="2023-02-25T10:20:10.751Z" agent="5.0 (Windows)" etag="UMF9gjPC0apiBXtwzqED" version="20.8.23" type="github">
  <diagram name="Seite-1" id="IerMHQKbE69juIeoWYwx">
    <mxGraphModel dx="2049" dy="1174" grid="0" gridSize="10" guides="1" tooltips="1" connect="1" arrows="1" fold="1" page="1" pageScale="1" pageWidth="827" pageHeight="1169" math="0" shadow="0">
      <root>
        <mxCell id="0" />
        <mxCell id="1" parent="0" />
        <mxCell id="h5z63Fl-7ZgzWy86kFCa-1" value="Domäne ABW33" style="rounded=0;whiteSpace=wrap;html=1;horizontal=1;verticalAlign=top;align=left;" vertex="1" parent="1">
          <mxGeometry x="100" y="100" width="1220" height="880" as="geometry" />
        </mxCell>
        <mxCell id="h5z63Fl-7ZgzWy86kFCa-10" value="Ubuntu 20.04 LTS (Hostname / IP ???)" style="rounded=0;whiteSpace=wrap;html=1;verticalAlign=top;align=left;" vertex="1" parent="1">
          <mxGeometry x="400" y="190" width="890" height="760" as="geometry" />
        </mxCell>
        <mxCell id="h5z63Fl-7ZgzWy86kFCa-2" value="Mutterhaus" style="rounded=0;whiteSpace=wrap;html=1;align=left;verticalAlign=top;" vertex="1" parent="1">
          <mxGeometry x="155" y="190" width="130" height="130" as="geometry" />
        </mxCell>
        <mxCell id="h5z63Fl-7ZgzWy86kFCa-4" value="Terminal" style="rounded=0;whiteSpace=wrap;html=1;" vertex="1" parent="1">
          <mxGeometry x="180" y="230" width="60" height="55" as="geometry" />
        </mxCell>
        <mxCell id="h5z63Fl-7ZgzWy86kFCa-5" value="Terminal" style="rounded=0;whiteSpace=wrap;html=1;" vertex="1" parent="1">
          <mxGeometry x="190" y="240" width="60" height="55" as="geometry" />
        </mxCell>
        <mxCell id="h5z63Fl-7ZgzWy86kFCa-41" style="edgeStyle=orthogonalEdgeStyle;curved=1;rounded=0;orthogonalLoop=1;jettySize=auto;html=1;exitX=1;exitY=0.5;exitDx=0;exitDy=0;entryX=0;entryY=0.5;entryDx=0;entryDy=0;" edge="1" parent="1" source="h5z63Fl-7ZgzWy86kFCa-6" target="h5z63Fl-7ZgzWy86kFCa-38">
          <mxGeometry relative="1" as="geometry" />
        </mxCell>
        <mxCell id="h5z63Fl-7ZgzWy86kFCa-42" value="POST sendBooking" style="edgeLabel;html=1;align=center;verticalAlign=middle;resizable=0;points=[];" vertex="1" connectable="0" parent="h5z63Fl-7ZgzWy86kFCa-41">
          <mxGeometry x="-0.1458" y="-16" relative="1" as="geometry">
            <mxPoint y="1" as="offset" />
          </mxGeometry>
        </mxCell>
        <mxCell id="h5z63Fl-7ZgzWy86kFCa-6" value="Terminal" style="rounded=0;whiteSpace=wrap;html=1;" vertex="1" parent="1">
          <mxGeometry x="200" y="250" width="60" height="55" as="geometry" />
        </mxCell>
        <mxCell id="h5z63Fl-7ZgzWy86kFCa-11" value="Docker" style="rounded=0;whiteSpace=wrap;html=1;align=left;verticalAlign=top;" vertex="1" parent="1">
          <mxGeometry x="750" y="440" width="480" height="385" as="geometry" />
        </mxCell>
        <mxCell id="h5z63Fl-7ZgzWy86kFCa-12" value="Volumes" style="rounded=0;whiteSpace=wrap;html=1;" vertex="1" parent="1">
          <mxGeometry x="935" y="865" width="120" height="60" as="geometry" />
        </mxCell>
        <mxCell id="h5z63Fl-7ZgzWy86kFCa-14" style="edgeStyle=orthogonalEdgeStyle;rounded=0;orthogonalLoop=1;jettySize=auto;html=1;exitX=0.5;exitY=1;exitDx=0;exitDy=0;exitPerimeter=0;" edge="1" parent="1" source="h5z63Fl-7ZgzWy86kFCa-13" target="h5z63Fl-7ZgzWy86kFCa-12">
          <mxGeometry relative="1" as="geometry" />
        </mxCell>
        <mxCell id="h5z63Fl-7ZgzWy86kFCa-13" value="Postgres" style="shape=cylinder3;whiteSpace=wrap;html=1;boundedLbl=1;backgroundOutline=1;size=15;" vertex="1" parent="1">
          <mxGeometry x="965" y="715" width="60" height="80" as="geometry" />
        </mxCell>
        <mxCell id="h5z63Fl-7ZgzWy86kFCa-16" style="edgeStyle=orthogonalEdgeStyle;rounded=0;orthogonalLoop=1;jettySize=auto;html=1;exitX=1;exitY=0.5;exitDx=0;exitDy=0;" edge="1" parent="1" source="h5z63Fl-7ZgzWy86kFCa-15" target="h5z63Fl-7ZgzWy86kFCa-13">
          <mxGeometry relative="1" as="geometry" />
        </mxCell>
        <mxCell id="h5z63Fl-7ZgzWy86kFCa-15" value="PgAdmin" style="rounded=0;whiteSpace=wrap;html=1;" vertex="1" parent="1">
          <mxGeometry x="800" y="725" width="120" height="60" as="geometry" />
        </mxCell>
        <mxCell id="h5z63Fl-7ZgzWy86kFCa-19" value="Admin" style="shape=umlActor;verticalLabelPosition=bottom;verticalAlign=top;html=1;outlineConnect=0;" vertex="1" parent="1">
          <mxGeometry x="205" y="732" width="30" height="60" as="geometry" />
        </mxCell>
        <mxCell id="h5z63Fl-7ZgzWy86kFCa-26" style="edgeStyle=orthogonalEdgeStyle;rounded=0;orthogonalLoop=1;jettySize=auto;html=1;exitX=0.5;exitY=0.5;exitDx=0;exitDy=0;exitPerimeter=0;entryX=0;entryY=0.5;entryDx=0;entryDy=0;curved=1;" edge="1" parent="1" source="h5z63Fl-7ZgzWy86kFCa-22" target="h5z63Fl-7ZgzWy86kFCa-15">
          <mxGeometry relative="1" as="geometry" />
        </mxCell>
        <mxCell id="h5z63Fl-7ZgzWy86kFCa-43" value="Kann Änderungen auf DB Ebene durchführen" style="edgeLabel;html=1;align=center;verticalAlign=middle;resizable=0;points=[];" vertex="1" connectable="0" parent="h5z63Fl-7ZgzWy86kFCa-26">
          <mxGeometry x="-0.5778" y="1" relative="1" as="geometry">
            <mxPoint x="51" y="-2" as="offset" />
          </mxGeometry>
        </mxCell>
        <mxCell id="h5z63Fl-7ZgzWy86kFCa-44" value="Nuxt? / Astro?" style="rounded=0;whiteSpace=wrap;html=1;labelBackgroundColor=#FFFFFF;" vertex="1" parent="1">
          <mxGeometry x="779" y="467" width="422" height="215" as="geometry" />
        </mxCell>
        <mxCell id="h5z63Fl-7ZgzWy86kFCa-45" style="edgeStyle=orthogonalEdgeStyle;curved=1;rounded=0;orthogonalLoop=1;jettySize=auto;html=1;entryX=0.5;entryY=0;entryDx=0;entryDy=0;entryPerimeter=0;" edge="1" parent="1" source="h5z63Fl-7ZgzWy86kFCa-48" target="h5z63Fl-7ZgzWy86kFCa-13">
          <mxGeometry relative="1" as="geometry" />
        </mxCell>
        <mxCell id="h5z63Fl-7ZgzWy86kFCa-30" value="Viewer" style="shape=umlActor;verticalLabelPosition=bottom;verticalAlign=top;html=1;outlineConnect=0;" vertex="1" parent="1">
          <mxGeometry x="205" y="625" width="30" height="60" as="geometry" />
        </mxCell>
        <mxCell id="h5z63Fl-7ZgzWy86kFCa-22" value="DB-Admin" style="shape=umlActor;verticalLabelPosition=bottom;verticalAlign=top;html=1;outlineConnect=0;" vertex="1" parent="1">
          <mxGeometry x="205" y="835" width="30" height="60" as="geometry" />
        </mxCell>
        <mxCell id="h5z63Fl-7ZgzWy86kFCa-31" value="" style="group" vertex="1" connectable="0" parent="1">
          <mxGeometry x="155" y="359" width="130" height="128" as="geometry" />
        </mxCell>
        <mxCell id="h5z63Fl-7ZgzWy86kFCa-3" value="EloGeb" style="rounded=0;whiteSpace=wrap;html=1;align=left;verticalAlign=top;" vertex="1" parent="h5z63Fl-7ZgzWy86kFCa-31">
          <mxGeometry width="130" height="128" as="geometry" />
        </mxCell>
        <mxCell id="h5z63Fl-7ZgzWy86kFCa-7" value="Terminal" style="rounded=0;whiteSpace=wrap;html=1;" vertex="1" parent="h5z63Fl-7ZgzWy86kFCa-31">
          <mxGeometry x="20" y="40" width="60" height="55" as="geometry" />
        </mxCell>
        <mxCell id="h5z63Fl-7ZgzWy86kFCa-8" value="Terminal" style="rounded=0;whiteSpace=wrap;html=1;" vertex="1" parent="h5z63Fl-7ZgzWy86kFCa-31">
          <mxGeometry x="30" y="50" width="60" height="55" as="geometry" />
        </mxCell>
        <mxCell id="h5z63Fl-7ZgzWy86kFCa-9" value="Terminal" style="rounded=0;whiteSpace=wrap;html=1;" vertex="1" parent="h5z63Fl-7ZgzWy86kFCa-31">
          <mxGeometry x="40" y="60" width="60" height="55" as="geometry" />
        </mxCell>
        <mxCell id="h5z63Fl-7ZgzWy86kFCa-38" value="Rest-API" style="rounded=0;whiteSpace=wrap;html=1;" vertex="1" parent="1">
          <mxGeometry x="800" y="486" width="120" height="60" as="geometry" />
        </mxCell>
        <mxCell id="h5z63Fl-7ZgzWy86kFCa-39" style="edgeStyle=orthogonalEdgeStyle;curved=1;rounded=0;orthogonalLoop=1;jettySize=auto;html=1;exitX=1;exitY=0.5;exitDx=0;exitDy=0;entryX=0;entryY=0.5;entryDx=0;entryDy=0;" edge="1" parent="1" source="h5z63Fl-7ZgzWy86kFCa-9" target="h5z63Fl-7ZgzWy86kFCa-38">
          <mxGeometry relative="1" as="geometry" />
        </mxCell>
        <mxCell id="h5z63Fl-7ZgzWy86kFCa-23" value="Web-Client" style="rounded=0;whiteSpace=wrap;html=1;" vertex="1" parent="1">
          <mxGeometry x="800" y="602.5" width="120" height="60" as="geometry" />
        </mxCell>
        <mxCell id="h5z63Fl-7ZgzWy86kFCa-33" style="edgeStyle=orthogonalEdgeStyle;curved=1;rounded=0;orthogonalLoop=1;jettySize=auto;html=1;exitX=0.5;exitY=0.5;exitDx=0;exitDy=0;exitPerimeter=0;entryX=0;entryY=0.5;entryDx=0;entryDy=0;" edge="1" parent="1" source="h5z63Fl-7ZgzWy86kFCa-30" target="h5z63Fl-7ZgzWy86kFCa-23">
          <mxGeometry relative="1" as="geometry" />
        </mxCell>
        <mxCell id="h5z63Fl-7ZgzWy86kFCa-35" value="Kann nur Buchung ansehen" style="edgeLabel;html=1;align=center;verticalAlign=middle;resizable=0;points=[];" vertex="1" connectable="0" parent="h5z63Fl-7ZgzWy86kFCa-33">
          <mxGeometry x="-0.6443" relative="1" as="geometry">
            <mxPoint x="69" y="-7" as="offset" />
          </mxGeometry>
        </mxCell>
        <mxCell id="h5z63Fl-7ZgzWy86kFCa-24" style="edgeStyle=orthogonalEdgeStyle;rounded=0;orthogonalLoop=1;jettySize=auto;html=1;exitX=0.5;exitY=0.5;exitDx=0;exitDy=0;exitPerimeter=0;entryX=0;entryY=0.5;entryDx=0;entryDy=0;curved=1;" edge="1" parent="1" source="h5z63Fl-7ZgzWy86kFCa-19" target="h5z63Fl-7ZgzWy86kFCa-23">
          <mxGeometry relative="1" as="geometry" />
        </mxCell>
        <mxCell id="h5z63Fl-7ZgzWy86kFCa-37" value="Kann neue Benutzer und Kurse erstellen" style="edgeLabel;html=1;align=center;verticalAlign=middle;resizable=0;points=[];" vertex="1" connectable="0" parent="h5z63Fl-7ZgzWy86kFCa-24">
          <mxGeometry x="-0.7401" y="3" relative="1" as="geometry">
            <mxPoint x="112" y="-6" as="offset" />
          </mxGeometry>
        </mxCell>
        <mxCell id="h5z63Fl-7ZgzWy86kFCa-47" value="Bucht mittels NFC" style="edgeStyle=orthogonalEdgeStyle;curved=1;rounded=0;orthogonalLoop=1;jettySize=auto;html=1;exitX=0.5;exitY=0;exitDx=0;exitDy=0;exitPerimeter=0;entryX=0.5;entryY=1;entryDx=0;entryDy=0;" edge="1" parent="1" source="h5z63Fl-7ZgzWy86kFCa-46" target="h5z63Fl-7ZgzWy86kFCa-3">
          <mxGeometry relative="1" as="geometry" />
        </mxCell>
        <mxCell id="h5z63Fl-7ZgzWy86kFCa-46" value="User" style="shape=umlActor;verticalLabelPosition=bottom;verticalAlign=top;html=1;outlineConnect=0;" vertex="1" parent="1">
          <mxGeometry x="205" y="532" width="30" height="60" as="geometry" />
        </mxCell>
        <mxCell id="h5z63Fl-7ZgzWy86kFCa-48" value="Prisma" style="rounded=0;whiteSpace=wrap;html=1;labelBackgroundColor=#FFFFFF;" vertex="1" parent="1">
          <mxGeometry x="935" y="603" width="120" height="60" as="geometry" />
        </mxCell>
      </root>
    </mxGraphModel>
  </diagram>
</mxfile>
